{"title":"Twin.Peaks.S02.Season.2.720p.5.1Ch.BluRay.ReEnc-DeeJayAhmed","uid":14511193,"size":7986226063,"categoryP":"other","categoryS":"other","magnet":"?xt=urn:btih:2356404228a46fafe28fac81993e449b499a4f69&amp;dn=Twin.Peaks.S02.Season.2.720p.5.1Ch.BluRay.ReEnc-DeeJayAhmed&amp;tr=udp%3A%2F%2Ftracker.leechers-paradise.org%3A6969&amp;tr=udp%3A%2F%2Fzer0day.ch%3A1337&amp;tr=udp%3A%2F%2Fopen.demonii.com%3A1337&amp;tr=udp%3A%2F%2Ftracker.coppersurfer.tk%3A6969&amp;tr=udp%3A%2F%2Fexodus.desync.com%3A6969","seeders":6,"leechers":5,"uploader":"DeeJayPirate","files":47,"time":1462277992,"description":"DeeJayAhmed  \nhttps://www.DeeJayAhmed.com\r\r\nKeep Seeding!!=)) \r\nDo Comment On The A/V Quality Considering The Size Of The File..!\r\nHelp Me By Donating Bitcoins : 14i1UCWye2SCjoAHR5u6LDswWgAy55dxAv\r\n\r\nVideo \r\nID : 1 \r\nFormat : AVC \r\nFormat/Info : Advanced Video Codec \r\nFormat profile :    \r\nFormat settings, CABAC : Yes \r\nFormat settings, ReFrames : 8 frames \r\nCodec ID : V_MPEG4/ISO/AVC \r\nDuration : 1h 34mn \r\nBit rate : 800 Kbps \r\nWidth : 960 pixels \r\nHeight : 720 pixels \r\nDisplay aspect ratio : 4:3 \r\nFrame rate mode : Constant \r\nFrame rate : 23.976 (24000/1001) fps \r\nColor space : YUV \r\nChroma subsampling : 4:2:0 \r\nBit depth : 8 bits \r\nScan type : Progressive \r\nBits/(Pixel*Frame) : 0.048 \r\nStream size : 539 MiB (82%) \r\nDefault : Yes \r\nForced : No \r\n\r\nAudio \r\nID : 2 \r\nFormat : AAC \r\nFormat/Info : Advanced Audio Codec \r\nFormat profile : HE-AAC / LC \r\nCodec ID : A_AAC \r\nDuration : 1h 34mn \r\nBit rate : 175 Kbps \r\nChannel(s) : 6 channels \r\nChannel positions : Front: L C R, Side: L R, LFE \r\nSampling rate : 48.0 KHz / 24.0 KHz \r\nFrame rate : 23.438 fps (1024 spf) \r\nCompression mode : Lossy \r\nDelay relative to video : 31ms \r\nStream size : 118 MiB (18%) \r\nLanguage : English \r\nDefault : Yes \r\nForced : No","torrent":{"xt":"urn:btih:2356404228a46fafe28fac81993e449b499a4f69","amp;dn":"Twin.Peaks.S02.Season.2.720p.5.1Ch.BluRay.ReEnc-DeeJayAhmed","amp;tr":["udp%3A%2F%2Ftracker.leechers-paradise.org%3A6969","udp%3A%2F%2Fzer0day.ch%3A1337","udp%3A%2F%2Fopen.demonii.com%3A1337","udp%3A%2F%2Ftracker.coppersurfer.tk%3A6969","udp%3A%2F%2Fexodus.desync.com%3A6969"],"infoHash":"2356404228a46fafe28fac81993e449b499a4f69","infoHashBuffer":{"type":"Buffer","data":[35,86,64,66,40,164,111,175,226,143,172,129,153,62,68,155,73,154,79,105]},"announce":[],"urlList":[]}}